<?xml version="1.0" encoding="iso-8859-1"?>
<!-- Uploaded to: SVG Repo, www.svgrepo.com, Generator: SVG Repo Mixer Tools -->
<!DOCTYPE svg PUBLIC "-//W3C//DTD SVG 1.1//EN" "http://www.w3.org/Graphics/SVG/1.1/DTD/svg11.dtd">
<svg fill="#FFF200" height="30px" width="30px" version="1.1" id="Capa_1" xmlns="http://www.w3.org/2000/svg" xmlns:xlink="http://www.w3.org/1999/xlink" 
	 viewBox="0 0 212.973 212.973" xml:space="preserve">
<g>
	<path d="M177.846,48.966c1.971,0,3.9-0.81,5.301-2.2c1.399-1.4,2.199-3.33,2.199-5.3c0-1.98-0.8-3.91-2.199-5.31
		c-1.4-1.39-3.33-2.19-5.301-2.19c-1.98,0-3.909,0.8-5.31,2.19c-1.4,1.4-2.2,3.33-2.2,5.31c0,1.97,0.8,3.9,2.2,5.3
		C173.936,48.156,175.866,48.966,177.846,48.966z"/>
	<path d="M150.846,48.966c1.971,0,3.9-0.8,5.301-2.2c1.399-1.4,2.199-3.33,2.199-5.31c0-1.97-0.8-3.9-2.199-5.3
		c-1.4-1.39-3.33-2.19-5.301-2.19c-1.98,0-3.909,0.8-5.31,2.19c-1.4,1.4-2.2,3.33-2.2,5.3c0,1.98,0.8,3.91,2.2,5.31
		C146.936,48.166,148.866,48.966,150.846,48.966z"/>
	<path d="M123.846,48.966c1.971,0,3.9-0.81,5.301-2.2c1.399-1.4,2.199-3.33,2.199-5.3c0-1.98-0.8-3.91-2.199-5.31
		c-1.4-1.39-3.33-2.19-5.301-2.19c-1.979,0-3.909,0.8-5.31,2.19c-1.39,1.4-2.19,3.33-2.19,5.31c0,1.97,0.801,3.9,2.19,5.3
		C119.937,48.156,121.866,48.966,123.846,48.966z"/>
	<path d="M205.473,10.678H7.5c-4.143,0-7.5,3.358-7.5,7.5v176.617c0,4.142,3.357,7.5,7.5,7.5h197.973c4.143,0,7.5-3.358,7.5-7.5
		V18.178C212.973,14.036,209.615,10.678,205.473,10.678z M197.973,25.678v31.571H15V25.678H197.973z M15,187.295V72.249h182.973
		v115.046H15z"/>
	<path d="M136.998,122.271h-23.012V99.26c0-4.142-3.357-7.5-7.5-7.5s-7.5,3.358-7.5,7.5v23.012H75.975c-4.143,0-7.5,3.358-7.5,7.5
		c0,4.142,3.357,7.5,7.5,7.5h23.012v23.013c0,4.142,3.357,7.5,7.5,7.5s7.5-3.358,7.5-7.5v-23.013h23.012c4.143,0,7.5-3.358,7.5-7.5
		C144.498,125.629,141.141,122.271,136.998,122.271z"/>
</g>
</svg>